# xmcd
#
# Track frame offsets:
#	150
#	12575
#	24265
#	37132
#	48610
#	60667
#	74655
#	85090
#	98065
#	111225
# Disc length: 1638 seconds
# Revision: 1
# Processed by: cddbd v1.5.1PL0 Copyright (c) Steve Scherf et al.
#
# Submitted via: libkcddb 0.10
#
DISCID=8706640a
DTITLE=Ray Charles - Rare Charles Blues
DYEAR=1900
DGENRE=
TTITLE0=Honey honey
TTITLE1=Ray Charles Blues
TTITLE2=You will miss the water
TTITLE3=She's on the ball
TTITLE4=How long
TTITLE5=Some day
TTITLE6=Ain't that fine
TTITLE7=Don't put all your dreams in on basket
TTITLE8=Baby won't you please come home
TTITLE9=Tell me baby
EXTD=
EXTT0=
EXTT1=
EXTT2=
EXTT3=
EXTT4=
EXTT5=
EXTT6=
EXTT7=
EXTT8=
EXTT9=
PLAYORDER=
